<svg xmlns="http://www.w3.org/2000/svg" width="115" height="100" viewBox="0 0 115 100" fill="none">
<path d="M105.211 23C101.596 15.0475 95.2439 11.3001 87 10.6322C90.1577 3.48367 97.9437 -1.10478 104.524 0.23094C105.771 0.515628 106.876 1.25363 107.634 2.30872C111.515 8.1463 110.563 17.1253 105.211 23Z" fill="#0B0A0A"/>
<path d="M65.9968 77.9881C65.8139 83.4398 50.2511 83.1981 50.0072 78.0969C49.7877 73.6243 54.6297 67.0242 57.9349 67.0001C61.2402 66.9759 66.1432 73.2859 65.9968 77.9881Z" fill="#0B0A0A"/>
<path d="M28 10.6507C19.7577 11.3669 13.3832 15.1088 9.80431 23C4.44201 17.1341 3.46595 8.18081 7.39429 2.29017C8.15449 1.23912 9.25777 0.502833 10.5032 0.215457C17.0585 -1.06887 24.8429 3.51274 28 10.6507Z" fill="#0B0A0A"/>
<path d="M92.139 77.1948C89.6606 78.1488 87.0369 78.6637 84.3841 78.7168C81.3162 78.732 78.3162 77.8086 75.7812 76.0687C74.9509 76.837 74.0634 77.5403 73.1266 78.1723V78.4322C72.9054 85.2255 66.7113 89.8038 57.7151 89.8038C48.7189 89.8038 42.4265 85.3245 42.1192 78.6673C42.1131 78.5601 42.1131 78.4527 42.1192 78.3455C41.1236 77.6845 40.1824 76.9438 39.3049 76.1306C36.7699 77.8705 33.7698 78.7939 30.702 78.7786C28.0451 78.7258 25.4174 78.2109 22.9348 77.2566C19.8285 76.1483 16.8362 74.7393 14 73.0495C14.746 74.8073 15.6125 76.5107 16.5932 78.1476C20.6353 84.9461 26.4613 90.4908 33.4303 94.1718C40.9008 98.0028 49.1655 100 57.5492 100C65.9329 100 74.1976 98.0028 81.6681 94.1718C88.5861 90.4262 94.3665 84.8629 98.3946 78.0733C99.3743 76.4425 100.245 74.7476 101 73C98.1869 74.6813 95.2195 76.086 92.139 77.1948Z" fill="#FF9843"/>
<path d="M81.662 16.7948C74.1911 12.9854 65.9293 11 57.5491 11C49.169 11 40.9072 12.9854 33.4363 16.7948C30.0102 18.6235 26.8378 20.8949 24 23.5508C26.565 22.8141 29.2201 22.4406 31.8882 22.4412C38.4823 22.4086 44.8724 24.7338 49.9129 29C54.9402 27.6852 60.2195 27.6852 65.2468 29C70.2863 24.7319 76.6771 22.4065 83.2716 22.4412C85.8836 22.4432 88.4833 22.7998 91 23.5015C88.1922 20.8668 85.0529 18.6121 81.662 16.7948Z" fill="#FF9843"/>
<path fill-rule="evenodd" clip-rule="evenodd" d="M38.5296 66.5396C41.2525 62.6207 45.4483 59.5268 49.4461 56.6999C50.6593 55.964 51.6332 54.9043 52.2536 53.645C52.874 52.3857 53.1152 50.979 52.9488 49.5901C52.7657 46.1319 51.704 42.7734 49.8602 39.8198C48.0164 36.8661 45.449 34.4108 42.3912 32.677C39.5338 31.0911 36.3374 30.1829 33.0577 30.0249C29.7781 29.8669 26.5062 30.4635 23.5039 31.767C20.3888 33.0608 17.4292 34.6884 14.6791 36.6201C9.19785 40.6044 4.26408 45.2655 0 50.4879C3.35476 54.4638 7.04362 58.157 11.0279 61.5288C15.333 65.1772 20.2828 68.0227 25.6328 69.9247C29.0364 71.1016 32.1059 71.5505 34.8908 70.0339C36.3614 69.1585 37.6065 67.9628 38.5296 66.5396ZM47 50C47 53.3137 44.3137 56 41 56C37.6863 56 35 53.3137 35 50C35 46.6863 37.6863 44 41 44C44.3137 44 47 46.6863 47 50Z" fill="#0B0A0A"/>
<path fill-rule="evenodd" clip-rule="evenodd" d="M103.966 61.5546C107.958 58.1985 111.65 54.5149 115 50.5438C110.724 45.2992 105.772 40.6181 100.268 36.6171C97.5388 34.6946 94.602 33.0716 91.5102 31.7772C88.3952 30.4179 84.9881 29.8234 81.5848 30.0454C78.1815 30.2674 74.8851 31.2992 71.9823 33.0511C69.0795 34.803 66.6581 37.2219 64.9285 40.0976C63.199 42.9733 62.2137 46.2187 62.0583 49.5516C61.8791 50.9512 62.1149 52.3717 62.7377 53.6438C63.3606 54.9159 64.3442 55.9861 65.5713 56.7268C69.579 59.546 73.7723 62.6314 76.4812 66.5396C77.4055 67.9617 78.6546 69.1546 80.1302 70.0243C82.901 71.5368 85.9686 71.1254 89.3703 69.9154C94.7124 68.0148 99.6578 65.1819 103.966 61.5546ZM78 50C78 53.3137 75.3137 56 72 56C68.6863 56 66 53.3137 66 50C66 46.6863 68.6863 44 72 44C75.3137 44 78 46.6863 78 50Z" fill="#0B0A0A"/>
</svg>