<svg xmlns="http://www.w3.org/2000/svg" width="161" height="94" fill="none">
  <g clip-path="url(#a)">
    <path fill="#fff" d="M23.6593 25.4602v13.4752h-8.7524V25.3516L.265625.900696H9.55824L19.6613 17.799 29.7643.900696h8.5903L23.6593 25.4602Z"/>
    <path fill="#FF9843" d="M70.9329 31.8718v7.0636H41.6504V.900696h28.5802V7.96428H50.3487v8.25892h17.5587v6.83H50.3487v8.8023l20.5842.0163Z"/>
    <path fill="#fff" d="M81.657 38.3649c-2.4175-.6343-4.6978-1.7119-6.7263-3.1786l2.9714-6.6289c1.7606 1.266 3.7126 2.2384 5.7809 2.8797 2.1629.7123 4.4235 1.079 6.6993 1.0867 2.4853 0 4.3222-.3712 5.5108-1.1138.5362-.2847.9853-.7106 1.2993-1.2322.3141-.5217.4812-1.1193.4836-1.7291.0042-.4341-.0911-.8633-.2785-1.2544-.1873-.391-.4618-.7334-.8021-1.0005-.8005-.6494-1.7175-1.1383-2.7013-1.4399-1.0805-.3622-2.5663-.7607-4.4572-1.1954-2.398-.5458-4.7614-1.2353-7.0775-2.0647-1.8299-.6835-3.4568-1.8241-4.7274-3.3145-1.3146-1.5213-1.972-3.5499-1.972-6.0855-.0218-2.13647.5997-4.22955 1.7829-6.00405 1.3415-1.91713 3.2096-3.39937 5.3757-4.26533C85.6143.691618 88.612.149703 91.625.232405c2.3857-.004307 4.7629.287694 7.0775.869365 2.1345.50912 4.1765 1.35256 6.0505 2.49943l-2.701 6.6832c-3.1727-1.90296-6.7873-2.93355-10.4811-2.98841-2.4492 0-4.2591.39846-5.4297 1.19538-.5396.32662-.9854.78902-1.2933 1.34163-.3079.5526-.4673 1.1764-.4625 1.8098 0 1.3041.6753 2.273 2.026 2.9069 1.9929.8359 4.0658 1.464 6.186 1.8746 2.398.5459 4.7614 1.2354 7.0776 2.0648 1.819.6773 3.443 1.7974 4.727 3.2601 1.315 1.4851 1.972 3.4955 1.972 6.0312.015 2.1225-.617 4.1987-1.81 5.9497-1.361 1.9197-3.248 3.4013-5.4293 4.2653-2.7984 1.122-5.7949 1.6582-8.8064 1.5757-2.9326.013-5.8522-.3932-8.6713-1.2062ZM10.2875 91.2492c-3.04253-1.6138-5.58462-4.0388-7.34765-7.0092C1.18737 81.1535.265625 77.6607.265625 74.1065c0-3.5543.921745-7.0471 2.674225-10.1336 1.76303-2.9704 4.30512-5.3954 7.34765-7.0092 3.2354-1.7202 6.8489-2.5947 10.5082-2.5429 3.0501-.0439 6.0761.5481 8.8874 1.7387 2.585 1.1138 4.8714 2.8267 6.6724 4.9989l-5.6188 5.2161c-1.15-1.4137-2.6022-2.5485-4.2484-3.3199-1.6463-.7714-3.4443-1.1595-5.2604-1.1356-2.1872-.039-4.3469.4947-6.2671 1.5486-1.8082 1.0035-3.2973 2.5011-4.2951 4.3197-1.01291 1.9447-1.542 4.1074-1.542 6.3029 0 2.1954.52909 4.3581 1.542 6.3028.9978 1.8186 2.4869 3.3162 4.2951 4.3197 1.9202 1.0539 4.0799 1.5876 6.2671 1.5486 1.821.021 3.623-.374 5.2701-1.1552s3.0964-1.9283 4.2387-3.3547l5.6188 5.2162c-1.7942 2.2042-4.093 3.9382-6.6994 5.0532-2.8214 1.1886-5.8558 1.7804-8.9144 1.7387-3.6389.0581-7.2339-.8052-10.4542-2.5103Zm76.7398-36.1601h17.1807c3.762-.0763 7.49.7331 10.886 2.3636 3.033 1.4646 5.584 3.775 7.348 6.656 1.717 3.049 2.62 6.4935 2.62 9.9977 0 3.5043-.903 6.9487-2.62 9.9977-1.764 2.881-4.315 5.1914-7.348 6.6561-3.396 1.6305-7.124 2.4399-10.886 2.3636H87.0273V55.0891Zm16.7487 30.8081c3.782 0 6.798-1.0596 9.049-3.1786 2.251-2.1191 3.377-4.9898 3.377-8.6122 0-3.6223-1.126-6.493-3.377-8.6121-2.251-2.1191-5.267-3.1786-9.049-3.1786h-7.9963v23.5815h7.9963Zm57.16.163v7.0636h-29.283V55.0891h28.581v7.0636h-19.882v8.2589h17.558v6.83h-17.558v8.8023l20.584.0163ZM81.0033 59.5011c-1.6208-3.4937-4.468-5.1401-8.1635-5.4335 1.4155-3.1406 4.9057-5.1564 7.8556-4.5696.5589.1251 1.054.4493 1.3939.9128 1.7396 2.5647 1.3128 6.5094-1.086 9.0903ZM63.4875 84.1693c-.0811 2.4505-6.9749 2.3419-7.0829.0489-.0973-2.0104 2.0476-4.9771 3.5117-4.9879 1.4641-.0109 3.636 2.8254 3.5712 4.939ZM46.9771 54.0459c-3.6954.3151-6.5534 1.9615-8.158 5.4335-2.4042-2.5809-2.8419-6.5202-1.0806-9.112.3409-.4625.8355-.7864 1.3939-.9129 2.9391-.565 6.4292 1.4508 7.8447 4.5914Z"/>
    <path fill="#FF9843" d="M75.1364 83.7618c-1.0895.419-2.2429.6451-3.4091.6684-1.3486.0067-2.6675-.3988-3.7819-1.1628-.365.3373-.7551.6462-1.1669.9237v.1141c-.0973 2.983-2.8202 4.9934-6.775 4.9934-3.9548 0-6.721-1.9669-6.856-4.8902-.0027-.047-.0027-.0942 0-.1413-.4377-.2902-.8515-.6155-1.2372-.9725-1.1144.7639-2.4333 1.1694-3.7819 1.1627-1.168-.0232-2.3231-.2493-3.4145-.6683-1.3655-.4867-2.681-1.1054-3.9278-1.8474.328.7719.7089 1.5199 1.14 2.2386 1.777 2.9853 4.3381 5.42 7.4017 7.0364 3.284 1.6823 6.9173 2.5593 10.6028 2.5593s7.3187-.877 10.6027-2.5593c3.0412-1.6447 5.5823-4.0876 7.3531-7.069.4307-.7161.8133-1.4603 1.1453-2.2277-1.2366.7382-2.5411 1.3551-3.8953 1.8419Zm-4.6361-26.809c-3.2851-1.6789-6.9179-2.5539-10.6028-2.5539s-7.3177.875-10.6027 2.5539c-1.5065.8059-2.9015 1.807-4.1493 2.9776 1.1279-.3247 2.2954-.4893 3.4685-.4891 2.8996-.0143 5.7094 1.0105 7.9258 2.8907 2.2106-.5795 4.5319-.5795 6.7425 0 2.2159-1.8811 5.0261-2.906 7.9258-2.8907 1.1485.0009 2.2916.1581 3.3982.4673-1.2346-1.1611-2.615-2.1549-4.106-2.9558Z"/>
    <path fill="#fff" fill-rule="evenodd" d="M51.3967 79.1097c1.1886-1.755 3.0201-3.1406 4.7651-4.4066.5296-.3295.9547-.8041 1.2255-1.3681.2709-.5639.3761-1.1939.3035-1.8159-.0799-1.5487-.5434-3.0528-1.3482-4.3755-.8048-1.3228-1.9255-2.4224-3.2603-3.1988-1.2473-.7102-2.6426-1.117-4.0742-1.1878-1.4316-.0707-2.8597.1965-4.1703.7802-1.3598.5795-2.6517 1.3084-3.8521 2.1734-2.3926 1.7844-4.5463 3.8718-6.4076 6.2106 1.4644 1.7805 3.0746 3.4345 4.8138 4.9445 1.8792 1.6339 4.0399 2.9082 6.3752 3.76 1.4857.527 2.8256.7281 4.0412.0489.6419-.392 1.1854-.9275 1.5884-1.5649Zm4.0628-7.4646c0 1.5004-1.2095 2.7167-2.7014 2.7167s-2.7013-1.2163-2.7013-2.7167c0-1.5005 1.2094-2.7168 2.7013-2.7168 1.4919 0 2.7014 1.2163 2.7014 2.7168Zm24.9552 5.2206c1.7436-1.5071 3.3559-3.1613 4.8192-4.9445-1.8675-2.3552-4.0304-4.4573-6.4346-6.254-1.1919-.8633-2.4747-1.5922-3.8251-2.1734-1.3605-.6105-2.8487-.8774-4.3351-.7777-1.4865.0997-2.9262.563-4.1941 1.3497-1.2679.7867-2.3255 1.873-3.0809 3.1643-.7554 1.2914-1.1858 2.7488-1.2537 4.2455-.0782.6285.0248 1.2664.2968 1.8376.272.5713.7016 1.0519 1.2376 1.3845 1.7505 1.266 3.582 2.6516 4.7652 4.4066.4037.6386.9493 1.1743 1.5938 1.5648 1.2102.6792 2.55.4945 4.0358-.0489 2.3333-.8535 4.4933-2.1256 6.3751-3.7545ZM69.4311 71.645c0 1.5005-1.2095 2.7168-2.7014 2.7168s-2.7013-1.2163-2.7013-2.7168c0-1.5004 1.2094-2.7167 2.7013-2.7167 1.4919 0 2.7014 1.2163 2.7014 2.7167Z" clip-rule="evenodd"/>
  </g>
  <defs>
    <clipPath id="a">
      <path fill="#fff" d="M0 0h161v94H0z"/>
    </clipPath>
  </defs>
</svg>
