<svg xmlns="http://www.w3.org/2000/svg" width="100" height="22" fill="none">
  <g clip-path="url(#a)">
    <path fill="#0B0A0A" d="M25.1126 20.7635c-1.5118-.7897-2.7749-1.9764-3.651-3.43-.8708-1.5104-1.3288-3.2197-1.3288-4.959 0-1.7393.458-3.44854 1.3288-4.95895.8761-1.45362 2.1392-2.64032 3.651-3.43006 1.6077-.8418 3.4032-1.26971 5.2215-1.24439 1.5156-.02147 3.0192.26824 4.4161.85087 1.2845.54502 2.4206 1.38325 3.3154 2.44624l-2.7919 2.5526c-.5714-.69183-1.293-1.24714-2.111-1.62463-.818-.37749-1.7115-.56745-2.6138-.55572-1.0868-.01909-2.16.24206-3.1141.75781-.8985.49109-1.6384 1.22394-2.1343 2.11387-.5033.95166-.7662 2.01006-.7662 3.08436 0 1.0744.2629 2.1327.7662 3.0844.4959.89 1.2358 1.6228 2.1343 2.1139.9541.5158 2.0273.7769 3.1141.7578.9048.0103 1.8002-.183 2.6186-.5653.8185-.3823 1.5386-.9436 2.1062-1.6416l2.7919 2.5526c-.8915 1.0786-2.0337 1.9271-3.3288 2.4728-1.4019.5816-2.9097.8713-4.4295.8509-1.8082.0284-3.5945-.3941-5.1947-1.2285ZM63.2441 3.06809h8.5369c1.8696-.03735 3.722.35874 5.4095 1.15664 1.507.71675 2.7743 1.84737 3.6509 3.25723.8534 1.49205 1.302 3.17764 1.302 4.89244 0 1.7149-.4486 3.4005-1.302 4.8925-.8766 1.4099-2.1439 2.5405-3.6509 3.2573-1.6875.7979-3.5399 1.1939-5.4095 1.1566h-8.5369V3.06809Zm8.3222 15.07631c1.8792 0 3.3781-.5185 4.4966-1.5555 1.1186-1.037 1.6779-2.4418 1.6779-4.2145 0-1.7726-.5593-3.17741-1.6779-4.2144-1.1185-1.037-2.6174-1.5555-4.4966-1.5555h-3.9732v11.5399h3.9732Zm28.403.0798v3.4566H85.4189V3.06812h14.2014v3.45664h-9.8792v4.04164h8.7248v3.3423h-8.7248v4.3075l10.2282.008ZM60.2507 5.22727c-.8053-1.70971-2.2201-2.51538-4.0564-2.65896.7034-1.53688 2.4376-2.523357 3.9034-2.236189.2777.061205.5238.21987.6926.446703.8645 1.255026.6524 3.185436-.5396 4.448446ZM51.5474 17.2988c-.0402 1.1992-3.4658 1.1461-3.5194.024-.0484-.9838 1.0174-2.4356 1.7449-2.4409.7275-.0054 1.8067 1.3826 1.7745 2.4169ZM43.3437 2.55762c-1.8362.15422-3.2563.95988-4.0537 2.65896-1.1946-1.26301-1.412-3.19075-.5369-4.459074.1694-.226304.4152-.384836.6926-.446711 1.4604-.276532 3.1947.709945 3.898 2.246825Z"/>
    <path fill="#FF9843" d="M57.336 17.0994c-.5413.205-1.1145.3156-1.6939.327-.6702.0033-1.3255-.1951-1.8792-.569-.1814.1651-.3752.3162-.5799.452v.0559c-.0483 1.4598-1.4013 2.4436-3.3664 2.4436s-3.3396-.9626-3.4067-2.3931a.568955.568955 0 0 1 0-.0691c-.2175-.1421-.4231-.3012-.6148-.476-.5537.3739-1.2091.5723-1.8792.569-.5803-.0113-1.1543-.122-1.6966-.327-.6786-.2382-1.3322-.541-1.9517-.9041.1629.3778.3522.7438.5664 1.0955.883 1.4609 2.1556 2.6524 3.6779 3.4434 1.6318.8232 3.4371 1.2524 5.2684 1.2524 1.8313 0 3.6367-.4292 5.2685-1.2524 1.5112-.8049 2.7738-2.0004 3.6537-3.4593.214-.3505.4041-.7147.5691-1.0902-.6145.3613-1.2627.6631-1.9356.9014ZM55.0323 3.98026c-1.6324-.82158-3.4375-1.24979-5.2685-1.24979-1.831 0-3.6361.42821-5.2685 1.24979-.7485.39441-1.4417.88428-2.0617 1.45711.5604-.15889 1.1405-.23945 1.7235-.23931 1.4408-.00703 2.8369.49446 3.9382 1.41456 1.0985-.28357 2.2519-.28357 3.3504 0 1.101-.92051 2.4974-1.42206 3.9382-1.41456.5707.00041 1.1387.07734 1.6886.22867-.6135-.56823-1.2994-1.05451-2.0402-1.44647Z"/>
    <path fill="#0B0A0A" fill-rule="evenodd" d="M45.5397 14.823c.5906-.8588 1.5006-1.5369 2.3677-2.1564.2632-.1613.4744-.3935.609-.6695.1346-.276.1869-.5843.1508-.8887-.0397-.7578-.27-1.49385-.6699-2.14117-.4-.64732-.9568-1.1854-1.6201-1.56538-.6197-.34754-1.313-.54659-2.0244-.58121-.7113-.03463-1.421.09612-2.0722.38179-.6757.28355-1.3176.64024-1.9141 1.06358-1.1889.87319-2.259 1.89469-3.1839 3.03919.7277.8713 1.5278 1.6807 2.392 2.4197.9337.7995 2.0073 1.4231 3.1677 1.84.7383.2579 1.4041.3563 2.0081.0239.319-.1918.589-.4539.7893-.7658Zm2.0187-3.6529c0 .7342-.6009 1.3295-1.3422 1.3295-.7414 0-1.3423-.5953-1.3423-1.3295 0-.7343.6009-1.32949 1.3423-1.32949.7413 0 1.3422.59519 1.3422 1.32949Zm12.4001 2.5547c.8664-.7375 1.6675-1.547 2.3947-2.4197-.928-1.1525-2.0027-2.18121-3.1973-3.06043-.5923-.42248-1.2297-.77915-1.9007-1.06359-.676-.29871-1.4155-.42936-2.1541-.38058-.7386.04879-1.454.27553-2.084.66052-.63.38498-1.1556.91655-1.5309 1.5485-.3754.63194-.5892 1.34518-.623 2.07758-.0389.3075.0123.6197.1475.8993.1352.2795.3486.5147.615.6775.8698.6195 1.7798 1.2975 2.3678 2.1564.2006.3125.4716.5746.7919.7658.6013.3323 1.2671.2419 2.0054-.024 1.1594-.4177 2.2327-1.0402 3.1677-1.8373ZM54.5008 11.17c0 .7343-.6009 1.3295-1.3422 1.3295-.7414 0-1.3423-.5952-1.3423-1.3295 0-.7342.6009-1.32947 1.3423-1.32947.7413 0 1.3422.59527 1.3422 1.32947Z" clip-rule="evenodd"/>
    <path fill="#0B0A0A" d="M16 19h3v3h-3zm-4.3758-3.5943v6.5942H7.27517v-6.6474L0 3.38721h4.61745l5.02013 8.26939 5.02012-8.26939h4.2685l-7.302 12.01849Z"/>
  </g>
  <defs>
    <clipPath id="a">
      <path fill="#fff" d="M0 0h100v22H0z"/>
    </clipPath>
  </defs>
</svg>
