<svg xmlns="http://www.w3.org/2000/svg" width="200" height="116" fill="none">
  <g clip-path="url(#a)">
    <path fill="#0B0A0A" d="M29.3907 31.4191V48.048H18.5182V31.285L.330322 1.11157H11.8739L24.4243 21.9647 36.9746 1.11157h10.6712L29.3907 31.4191Z"/>
    <path fill="#F7A51F" d="M88.1156 39.3312v8.7168H51.7397V1.11157h35.5034v8.71677h-24.698V20.0202h21.8121v8.4285H62.5451v10.8624l25.5705.0201Z"/>
    <path fill="#0B0A0A" d="M101.438 47.3439c-3.0034-.7828-5.8361-2.1126-8.356-3.9226l3.6913-8.1803c2.187 1.5624 4.6117 2.7623 7.1807 3.5537 2.687.879 5.495 1.3315 8.323 1.3411 3.087 0 5.369-.4582 6.845-1.3746.666-.3513 1.224-.8769 1.614-1.5206.39-.6437.598-1.3812.601-2.1337.005-.5357-.113-1.0654-.346-1.548-.233-.4826-.574-.905-.996-1.2347-.995-.8014-2.134-1.4046-3.356-1.7769-1.342-.447-3.188-.9387-5.537-1.4751-2.979-.6736-5.915-1.5245-8.792-2.548-2.273-.8434-4.2939-2.251-5.8723-4.0902-1.6331-1.8774-2.4497-4.3807-2.4497-7.5098-.0271-2.6365.745-5.21942 2.2148-7.40923C97.8692 5.14916 100.19 3.32 102.881 2.25138 106.354.853447 110.077.1847 113.82.286758c2.964-.005314 5.917.355027 8.792 1.072832 2.652.62828 5.189 1.66912 7.517 3.0844l-3.356 8.24741c-3.941-2.3484-8.431-3.62018-13.02-3.68788-3.042 0-5.291.49172-6.745 1.47518-.67.403-1.224.9737-1.606 1.6556-.383.682-.581 1.4517-.575 2.2334 0 1.6092.839 2.805 2.517 3.5873 2.475 1.0314 5.05 1.8065 7.684 2.3133 2.979.6736 5.915 1.5244 8.792 2.5479 2.26.836 4.278 2.2182 5.873 4.0232 1.633 1.8327 2.449 4.3136 2.449 7.4427.018 2.6193-.766 5.1814-2.248 7.3422-1.692 2.3691-4.035 4.1974-6.745 5.2636-3.476 1.3847-7.199 2.0463-10.939 1.9445-3.644.016-7.27-.4852-10.772-1.4885ZM12.7799 112.605c-3.77958-1.991-6.93746-4.984-9.12757-8.649C1.47535 100.147.330322 95.8366.330322 91.4505c0-4.3861 1.145028-8.6963 3.322008-12.5052 2.19011-3.6656 5.34799-6.6582 9.12757-8.6497 4.0191-2.1228 8.5079-3.2019 13.0536-3.138 3.7889-.0542 7.548.6764 11.0403 2.1457 3.2112 1.3744 6.0514 3.4882 8.2886 6.1687l-6.9799 6.437c-1.4285-1.7446-3.2324-3.1449-5.2775-4.0969-2.045-.9519-4.2786-1.4309-6.5345-1.4013-2.7171-.0482-5.3999.6104-7.7853 1.9109-2.2463 1.2384-4.096 3.0865-5.3356 5.3307-1.2582 2.3999-1.9155 5.0688-1.9155 7.778 0 2.7093.6573 5.3781 1.9155 7.778 1.2396 2.2446 3.0893 4.0926 5.3356 5.3306 2.3854 1.301 5.0682 1.959 7.7853 1.911 2.262.026 4.5005-.461 6.5466-1.425s3.8465-2.38 5.2654-4.14l6.9799 6.437c-2.2288 2.72-5.0844 4.86-8.3221 6.236-3.5049 1.466-7.2743 2.197-11.0739 2.145-4.5203.072-8.9861-.993-12.9865-3.098Zm95.3291-44.6226h21.342c4.674-.0942 9.305.9047 13.523 2.9168 3.768 1.8074 6.936 4.6585 9.128 8.2138 2.133 3.7626 3.255 8.0132 3.255 12.3376 0 4.3244-1.122 8.5754-3.255 12.3374-2.192 3.555-5.36 6.407-9.128 8.214-4.218 2.012-8.849 3.011-13.523 2.917h-21.342V67.9824Zm20.805 38.0186c4.698 0 8.445-1.308 11.242-3.923 2.796-2.6147 4.194-6.1572 4.194-10.6274 0-4.4701-1.398-8.0127-4.194-10.6277-2.797-2.6151-6.544-3.9226-11.242-3.9226h-9.933v29.1007h9.933Zm71.007.201v8.717h-36.376V67.9824h35.503v8.7168H174.35v10.1919h21.812v8.4284H174.35v10.8625l25.571.02Zm-99.296-32.775c-2.0129-4.3114-5.5499-6.3431-10.1405-6.7052 1.7584-3.8756 6.094-6.3632 9.7585-5.6391.694.1544 1.309.5545 1.731 1.1265 2.162 3.1648 1.631 8.0328-1.349 11.2178Zm-21.7579 30.442c-.1007 3.024-8.6644 2.889-8.7986.06-.1209-2.481 2.5436-6.1421 4.3624-6.1555 1.8188-.0134 4.5168 3.4865 4.4362 6.0955Zm-20.51-37.174c-4.5906.3889-8.141 2.4206-10.1343 6.7052-2.9866-3.185-3.5302-8.0462-1.3423-11.2446.4234-.5707 1.0379-.9705 1.7316-1.1265 3.651-.6973 7.9866 1.7903 9.745 5.6659Z"/>
    <path fill="#F7A51F" d="M93.3369 103.366c-1.3535.517-2.7862.796-4.2349.825-1.6754.008-3.3137-.493-4.698-1.435-.4534.416-.9381.797-1.4497 1.14v.14c-.1208 3.682-3.5033 6.162-8.4161 6.162-4.9127 0-8.349-2.427-8.5167-6.034a1.5025 1.5025 0 0 1 0-.175c-.5438-.358-1.0577-.759-1.5369-1.2-1.3844.943-3.0227 1.443-4.698 1.435-1.4509-.029-2.8859-.308-4.2417-.825-1.6963-.6-3.3303-1.364-4.8792-2.279.4074.952.8806 1.875 1.4162 2.762 2.2074 3.684 5.3889 6.689 9.1946 8.683 4.0796 2.076 8.5929 3.159 13.1711 3.159 4.5783 0 9.0916-1.083 13.1712-3.159 3.7779-2.029 6.9345-5.044 9.1342-8.723.535-.884 1.0103-1.802 1.4228-2.749-1.5362.911-3.1567 1.672-4.8389 2.273Zm-5.7584-33.0837c-4.0808-2.0718-8.5936-3.1517-13.1711-3.1517-4.5775 0-9.0903 1.0799-13.1712 3.1517-1.8714.9946-3.6042 2.2299-5.1543 3.6744 1.4011-.4007 2.8513-.6038 4.3087-.6035 3.6019-.0177 7.0924 1.2469 9.8456 3.5672 2.7461-.7151 5.6298-.7151 8.3759 0 2.7527-2.3213 6.2435-3.5861 9.8456-3.5672 1.4268.0011 2.8468.1951 4.2215.5767-1.5337-1.4329-3.2485-2.6592-5.1007-3.6476Z"/>
    <path fill="#0B0A0A" fill-rule="evenodd" d="M63.847 97.6248c1.4765-2.1658 3.7517-3.8756 5.9194-5.4379.6579-.4067 1.186-.9924 1.5224-1.6883.3364-.696.4672-1.4734.377-2.241-.0993-1.9111-.675-3.7672-1.6748-5.3996-.9998-1.6323-2.392-2.9892-4.05-3.9474-1.5495-.8764-3.2827-1.3784-5.0611-1.4657-1.7784-.0873-3.5526.2424-5.1806.9628-1.6891.715-3.294 1.6145-4.7852 2.6821-2.9722 2.2019-5.6475 4.7779-7.9597 7.664a51.0376 51.0376 0 0 0 5.9798 6.1017c2.3345 2.0164 5.0185 3.589 7.9195 4.6401 1.8456.6504 3.5101.8984 5.0201.0603.7975-.4838 1.4726-1.1446 1.9732-1.9311Zm5.0469-9.2117c0 1.8516-1.5024 3.3526-3.3557 3.3526-1.8533 0-3.3557-1.501-3.3557-3.3526s1.5024-3.3526 3.3557-3.3526c1.8533 0 3.3557 1.501 3.3557 3.3526Zm31 6.4424c2.1661-1.8598 4.1691-3.9011 5.9871-6.1017-2.32-2.9064-5.007-5.5005-7.9938-7.7177-1.4807-1.0654-3.0742-1.9648-4.7517-2.6821-1.6901-.7533-3.5387-1.0827-5.3853-.9597-1.8465.123-3.635.6948-5.21 1.6656-1.575.9709-2.8888 2.3113-3.8272 3.9049-.9384 1.5937-1.473 3.3921-1.5573 5.2391-.0973.7756.0307 1.5628.3686 2.2678.3379.7049.8716 1.298 1.5374 1.7084 2.1745 1.5624 4.4497 3.2722 5.9195 5.438.5015.788 1.1792 1.4491 1.9798 1.9311 1.5034.8378 3.1678.6098 5.0135-.0604 2.8985-1.0533 5.5817-2.6231 7.9194-4.6333ZM86.2496 88.413c0 1.8516-1.5024 3.3526-3.3557 3.3526-1.8533 0-3.3557-1.501-3.3557-3.3526s1.5024-3.3526 3.3557-3.3526c1.8533 0 3.3557 1.501 3.3557 3.3526Z" clip-rule="evenodd"/>
  </g>
  <defs>
    <clipPath id="a">
      <path fill="#fff" d="M0 0h200v116H0z"/>
    </clipPath>
  </defs>
</svg>
