<svg xmlns="http://www.w3.org/2000/svg" width="161" height="94" fill="none">
  <g clip-path="url(#a)">
    <path fill="#0B0A0A" d="M23.6595 25.4602v13.4751h-8.7524V25.3515L.265869.900635H9.55849L19.6615 17.7989 29.7645.900635h8.5903L23.6595 25.4602Z"/>
    <path fill="#fff" d="M70.9329 31.8717v7.0636H41.6504V.900635h28.5802V7.96422H50.3487v8.25898h17.5587v6.8299H50.3487v8.8023l20.5842.0163Z"/>
    <path fill="#0B0A0A" d="M81.6573 38.3648c-2.4175-.6343-4.6978-1.7118-6.7264-3.1786l2.9715-6.6289c1.7606 1.2661 3.7126 2.2385 5.7809 2.8798 2.1629.7122 4.4234 1.0789 6.6993 1.0867 2.4852 0 4.3221-.3713 5.5107-1.1139.5362-.2847.9853-.7106 1.2994-1.2322.314-.5216.4812-1.1193.4835-1.7291.0043-.434-.091-.8633-.2784-1.2543-.1874-.3911-.4619-.7335-.8021-1.0006-.8005-.6494-1.7176-1.1382-2.7014-1.4399-1.0805-.3622-2.5662-.7607-4.4572-1.1953-2.3979-.5459-4.7613-1.2354-7.0775-2.0648-1.8299-.6835-3.4567-1.8241-4.7273-3.3144-1.3147-1.5214-1.972-3.5499-1.972-6.0856-.0219-2.13643.5996-4.22951 1.7829-6.00402 1.3414-1.91712 3.2095-3.39936 5.3756-4.26532C85.6146.691557 88.6122.149642 91.6252.232343c2.3858-.004306 4.7629.287695 7.0775.869367 2.1343.50912 4.1763 1.35256 6.0513 2.49943l-2.702 6.68326c-3.1724-1.90302-6.787-2.93361-10.4808-2.98847-2.4492 0-4.2591.39846-5.4297 1.19538-.5397.32662-.9855.78902-1.2933 1.34163-.3079.55266-.4674 1.17636-.4626 1.80976 0 1.3041.6753 2.2731 2.026 2.907 1.9929.8358 4.0658 1.4639 6.1861 1.8745 2.3979.5459 4.7613 1.2354 7.0775 2.0648 1.8198.6774 3.4438 1.7974 4.7278 3.2601 1.314 1.4852 1.972 3.4956 1.972 6.0312.014 2.1225-.617 4.1987-1.81 5.9497-1.362 1.9198-3.248 3.4013-5.4301 4.2653-2.7983 1.1221-5.7949 1.6583-8.8063 1.5758-2.9327.0129-5.8523-.3932-8.6713-1.2063ZM10.2877 91.2493c-3.04249-1.6138-5.58457-4.0388-7.34761-7.0093C1.18762 81.1536.265869 77.6608.265869 74.1065c0-3.5542.921751-7.047 2.674221-10.1335 1.76304-2.9704 4.30512-5.3955 7.34761-7.0093 3.2354-1.7202 6.8489-2.5946 10.5083-2.5428 3.05-.0439 6.0761.5481 8.8874 1.7387 2.585 1.1137 4.8713 2.8266 6.6723 4.9988l-5.6188 5.2162c-1.15-1.4137-2.6021-2.5485-4.2484-3.3199-1.6463-.7714-3.4443-1.1596-5.2603-1.1356-2.1872-.039-4.3469.4946-6.2671 1.5486-1.8083 1.0035-3.2973 2.5011-4.2952 4.3196-1.01287 1.9448-1.54196 4.1075-1.54196 6.3029 0 2.1954.52909 4.3581 1.54196 6.3029.9979 1.8186 2.4869 3.3161 4.2952 4.3197 1.9202 1.0539 4.0799 1.5875 6.2671 1.5485 1.821.021 3.6229-.374 5.27-1.1552 1.6471-.7812 3.0965-1.9282 4.2387-3.3546l5.6188 5.2162c-1.7942 2.2042-4.0929 3.9381-6.6993 5.0532-2.8214 1.1885-5.8558 1.7804-8.9145 1.7387-3.6389.058-7.2338-.8052-10.4542-2.5103Zm76.7396-36.1601h17.1807c3.762-.0763 7.49.733 10.886 2.3635 3.033 1.4647 5.584 3.7751 7.348 6.6561 1.717 3.049 2.62 6.4935 2.62 9.9977s-.903 6.9487-2.62 9.9977c-1.764 2.881-4.315 5.1914-7.348 6.6561-3.396 1.6305-7.124 2.4398-10.886 2.3635H87.0273V55.0892Zm16.7487 30.808c3.782 0 6.798-1.0595 9.049-3.1786 2.251-2.119 3.377-4.9897 3.377-8.6121 0-3.6223-1.126-6.4931-3.377-8.6121-2.251-2.1191-5.267-3.1787-9.049-3.1787h-7.9963v23.5815h7.9963Zm57.16.163v7.0636h-29.282V55.0891h28.58v7.0636h-19.882v8.2589h17.559v6.83h-17.559v8.8023l20.584.0163Zm-79.9327-26.559c-1.6208-3.4938-4.468-5.1401-8.1635-5.4335 1.4155-3.1406 4.9057-5.1565 7.8556-4.5696.5589.125 1.054.4493 1.3939.9128 1.7396 2.5646 1.3128 6.5094-1.086 9.0903ZM63.488 84.1693c-.0811 2.4505-6.9749 2.3419-7.083.0489-.0972-2.0104 2.0477-4.9771 3.5118-4.9879 1.4641-.0109 3.636 2.8254 3.5712 4.939ZM46.9774 54.0459c-3.6955.3151-6.5535 1.9615-8.1581 5.4335-2.4042-2.5809-2.8418-6.5202-1.0805-9.112.3408-.4625.8355-.7864 1.3938-.9129 2.9391-.565 6.4293 1.4508 7.8448 4.5914Z"/>
    <path fill="#fff" d="M75.1362 83.7618c-1.0896.4189-2.2429.645-3.4091.6683-1.3487.0067-2.6675-.3988-3.7819-1.1628-.365.3374-.7552.6462-1.167.9237v.1141c-.0972 2.983-2.8202 4.9934-6.775 4.9934-3.9547 0-6.7209-1.9669-6.856-4.8901a1.233462 1.233462 0 0 1 0-.1413c-.4377-.2903-.8514-.6155-1.2372-.9726-1.1144.764-2.4332 1.1695-3.7818 1.1628-1.168-.0232-2.3232-.2494-3.4145-.6684-1.3656-.4867-2.681-1.1054-3.9278-1.8474.3279.7719.7089 1.5199 1.14 2.2386 1.7769 2.9854 4.338 5.4201 7.4016 7.0365 3.2841 1.6822 6.9173 2.5592 10.6028 2.5592s7.3187-.877 10.6028-2.5592c3.0412-1.6448 5.5823-4.0877 7.353-7.0691.4307-.7161.8134-1.4603 1.1454-2.2277-1.2367.7383-2.5411 1.3551-3.8953 1.842Zm-4.6356-26.809c-3.2851-1.6788-6.9179-2.5539-10.6028-2.5539s-7.3177.8751-10.6028 2.5539c-1.5065.806-2.9014 1.8071-4.1492 2.9776 1.1278-.3247 2.2953-.4893 3.4685-.489 2.8995-.0144 5.7093 1.0104 7.9257 2.8906 2.2106-.5795 4.532-.5795 6.7426 0 2.2159-1.881 5.026-2.9059 7.9257-2.8906 1.1485.0008 2.2917.158 3.3983.4673-1.2347-1.1612-2.615-2.1549-4.106-2.9559Z"/>
    <path fill="#0B0A0A" fill-rule="evenodd" d="M51.3967 79.1097c1.1886-1.7551 3.0201-3.1406 4.7651-4.4066.5296-.3296.9547-.8042 1.2255-1.3681.2709-.564.3761-1.194.3035-1.816-.0799-1.5487-.5434-3.0527-1.3482-4.3755-.8048-1.3228-1.9255-2.4223-3.2603-3.1988-1.2473-.7102-2.6426-1.117-4.0742-1.1877-1.4316-.0708-2.8597.1964-4.1703.7802-1.3598.5794-2.6517 1.3083-3.8521 2.1734-2.3926 1.7843-4.5463 3.8717-6.4076 6.2105 1.4644 1.7806 3.0746 3.4345 4.8138 4.9445 1.8792 1.6339 4.0399 2.9083 6.3752 3.76 1.4857.5271 2.8256.7281 4.0412.0489.6419-.392 1.1854-.9275 1.5884-1.5648Zm4.0628-7.4647c0 1.5004-1.2095 2.7168-2.7014 2.7168s-2.7013-1.2164-2.7013-2.7168c0-1.5004 1.2094-2.7168 2.7013-2.7168 1.4919 0 2.7014 1.2164 2.7014 2.7168Zm24.955 5.2207c1.7435-1.5071 3.3558-3.1613 4.8192-4.9445-1.8675-2.3552-4.0304-4.4573-6.4346-6.254-1.192-.8633-2.4747-1.5922-3.8251-2.1734-1.3605-.6105-2.8487-.8774-4.3352-.7777-1.4864.0997-2.9262.563-4.1941 1.3497-1.2678.7867-2.3255 1.873-3.0809 3.1643-.7554 1.2914-1.1857 2.7488-1.2536 4.2455-.0783.6285.0247 1.2664.2967 1.8376.2721.5713.7017 1.0519 1.2377 1.3845 1.7504 1.266 3.5819 2.6516 4.7651 4.4066.4037.6386.9493 1.1743 1.5938 1.5648 1.2102.6792 2.5501.4945 4.0358-.0489 2.3333-.8535 4.4934-2.1256 6.3752-3.7545ZM69.4308 71.645c0 1.5005-1.2094 2.7168-2.7013 2.7168-1.4919 0-2.7013-1.2163-2.7013-2.7168 0-1.5004 1.2094-2.7167 2.7013-2.7167 1.4919 0 2.7013 1.2163 2.7013 2.7167Z" clip-rule="evenodd"/>
  </g>
  <defs>
    <clipPath id="a">
      <path fill="#fff" d="M0 0h161v94H0z"/>
    </clipPath>
  </defs>
</svg>
