<svg width="100" height="22" viewBox="0 0 100 22" fill="none" xmlns="http://www.w3.org/2000/svg">
<g id="logo_mob" clip-path="url(#clip0_131_10821)">
<g id="Group 7">
<path id="Vector" d="M25.1126 20.7635C23.6008 19.9738 22.3377 18.7871 21.4616 17.3335C20.5908 15.8231 20.1328 14.1138 20.1328 12.3745C20.1328 10.6352 20.5908 8.92596 21.4616 7.41555C22.3377 5.96193 23.6008 4.77523 25.1126 3.98549C26.7203 3.14369 28.5158 2.71578 30.3341 2.7411C31.8497 2.71963 33.3533 3.00934 34.7502 3.59197C36.0347 4.13699 37.1708 4.97522 38.0656 6.03821L35.2737 8.59081C34.7023 7.89898 33.9807 7.34367 33.1627 6.96618C32.3447 6.58869 31.4512 6.39873 30.5489 6.41046C29.4621 6.39137 28.3889 6.65252 27.4348 7.16827C26.5363 7.65936 25.7964 8.39221 25.3005 9.28214C24.7972 10.2338 24.5343 11.2922 24.5343 12.3665C24.5343 13.4409 24.7972 14.4992 25.3005 15.4509C25.7964 16.3409 26.5363 17.0737 27.4348 17.5648C28.3889 18.0806 29.4621 18.3417 30.5489 18.3226C31.4537 18.3329 32.3491 18.1396 33.1675 17.7573C33.986 17.375 34.7061 16.8137 35.2737 16.1157L38.0656 18.6683C37.1741 19.7469 36.0319 20.5954 34.7368 21.1411C33.3349 21.7227 31.8271 22.0124 30.3073 21.992C28.4991 22.0204 26.7128 21.5979 25.1126 20.7635Z" fill="#0B0A0A"/>
<path id="Vector_2" d="M63.2441 3.06809H71.781C73.6506 3.03074 75.503 3.42683 77.1905 4.22473C78.6975 4.94148 79.9648 6.0721 80.8414 7.48196C81.6948 8.97401 82.1434 10.6596 82.1434 12.3744C82.1434 14.0893 81.6948 15.7749 80.8414 17.2669C79.9648 18.6768 78.6975 19.8074 77.1905 20.5242C75.503 21.3221 73.6506 21.7181 71.781 21.6808H63.2441V3.06809ZM71.5663 18.1444C73.4455 18.1444 74.9444 17.6259 76.0629 16.5889C77.1815 15.5519 77.7408 14.1471 77.7408 12.3744C77.7408 10.6018 77.1815 9.19699 76.0629 8.16C74.9444 7.123 73.4455 6.6045 71.5663 6.6045H67.5931V18.1444H71.5663Z" fill="#0B0A0A"/>
<path id="Vector_3" d="M99.9693 18.2242V21.6808H85.4189V3.06812H99.6203V6.52476H89.7411V10.5664H98.4659V13.9087H89.7411V18.2162L99.9693 18.2242Z" fill="#0B0A0A"/>
<g id="Group 2">
<path id="Vector_4" d="M60.2507 5.22727C59.4454 3.51756 58.0306 2.71189 56.1943 2.56831C56.8977 1.03143 58.6319 0.0449531 60.0977 0.332121C60.3754 0.393326 60.6215 0.551991 60.7903 0.778824C61.6548 2.03385 61.4427 3.96426 60.2507 5.22727Z" fill="#0B0A0A"/>
<path id="Vector_5" d="M51.5474 17.2988C51.5072 18.498 48.0816 18.4449 48.028 17.3228C47.9796 16.339 49.0454 14.8872 49.7729 14.8819C50.5004 14.8765 51.5796 16.2645 51.5474 17.2988Z" fill="#0B0A0A"/>
<path id="Vector_6" d="M43.3437 2.55762C41.5075 2.71184 40.0874 3.5175 39.29 5.21658C38.0954 3.95357 37.878 2.02583 38.7531 0.757506C38.9225 0.531202 39.1683 0.37267 39.4457 0.310795C40.9061 0.0342629 42.6404 1.02074 43.3437 2.55762Z" fill="#0B0A0A"/>
<path id="Vector_7" d="M57.336 17.0994C56.7947 17.3044 56.2215 17.415 55.6421 17.4264C54.9719 17.4297 54.3166 17.2313 53.7629 16.8574C53.5815 17.0225 53.3877 17.1736 53.183 17.3094V17.3653C53.1347 18.8251 51.7817 19.8089 49.8166 19.8089C47.8515 19.8089 46.477 18.8463 46.4099 17.4158C46.4085 17.3928 46.4085 17.3697 46.4099 17.3467C46.1924 17.2046 45.9868 17.0455 45.7951 16.8707C45.2414 17.2446 44.586 17.443 43.9159 17.4397C43.3356 17.4284 42.7616 17.3177 42.2193 17.1127C41.5407 16.8745 40.8871 16.5717 40.2676 16.2086C40.4305 16.5864 40.6198 16.9524 40.834 17.3041C41.717 18.765 42.9896 19.9565 44.5119 20.7475C46.1437 21.5707 47.949 21.9999 49.7803 21.9999C51.6116 21.9999 53.417 21.5707 55.0488 20.7475C56.56 19.9426 57.8226 18.7471 58.7025 17.2882C58.9165 16.9377 59.1066 16.5735 59.2716 16.198C58.6571 16.5593 58.0089 16.8611 57.336 17.0994Z" fill="#FF9843"/>
<path id="Vector_8" d="M55.0323 3.98026C53.3999 3.15868 51.5948 2.73047 49.7638 2.73047C47.9328 2.73047 46.1277 3.15868 44.4953 3.98026C43.7468 4.37467 43.0536 4.86454 42.4336 5.43737C42.994 5.27848 43.5741 5.19792 44.1571 5.19806C45.5979 5.19103 46.994 5.69252 48.0953 6.61262C49.1938 6.32905 50.3472 6.32905 51.4457 6.61262C52.5467 5.69211 53.9431 5.19056 55.3839 5.19806C55.9546 5.19847 56.5226 5.2754 57.0725 5.42673C56.459 4.8585 55.7731 4.37222 55.0323 3.98026Z" fill="#FF9843"/>
<path id="Subtract" fill-rule="evenodd" clip-rule="evenodd" d="M45.5397 14.823C46.1303 13.9642 47.0403 13.2861 47.9074 12.6666C48.1706 12.5053 48.3818 12.2731 48.5164 11.9971C48.651 11.7211 48.7033 11.4128 48.6672 11.1084C48.6275 10.3506 48.3972 9.61455 47.9973 8.96723C47.5973 8.31991 47.0405 7.78183 46.3772 7.40185C45.7575 7.05431 45.0642 6.85526 44.3528 6.82064C43.6415 6.78601 42.9318 6.91676 42.2806 7.20243C41.6049 7.48598 40.963 7.84267 40.3665 8.26601C39.1776 9.1392 38.1075 10.1607 37.1826 11.3052C37.9103 12.1765 38.7104 12.9859 39.5746 13.7249C40.5083 14.5244 41.5819 15.148 42.7423 15.5649C43.4806 15.8228 44.1464 15.9212 44.7504 15.5888C45.0694 15.397 45.3394 15.1349 45.5397 14.823ZM47.5584 11.1701C47.5584 11.9043 46.9575 12.4996 46.2162 12.4996C45.4748 12.4996 44.8739 11.9043 44.8739 11.1701C44.8739 10.4358 45.4748 9.84061 46.2162 9.84061C46.9575 9.84061 47.5584 10.4358 47.5584 11.1701Z" fill="#0B0A0A"/>
<path id="Subtract_2" fill-rule="evenodd" clip-rule="evenodd" d="M59.9585 13.7248C60.8249 12.9873 61.626 12.1778 62.3532 11.3051C61.4252 10.1526 60.3505 9.12389 59.1559 8.24467C58.5636 7.82219 57.9262 7.46552 57.2552 7.18108C56.5792 6.88237 55.8397 6.75172 55.1011 6.8005C54.3625 6.84929 53.6471 7.07603 53.0171 7.46102C52.3871 7.846 51.8615 8.37757 51.4862 9.00952C51.1108 9.64146 50.897 10.3547 50.8632 11.0871C50.8243 11.3946 50.8755 11.7068 51.0107 11.9864C51.1459 12.2659 51.3593 12.5011 51.6257 12.6639C52.4955 13.2834 53.4055 13.9614 53.9935 14.8203C54.1941 15.1328 54.4651 15.3949 54.7854 15.5861C55.3867 15.9184 56.0525 15.828 56.7908 15.5621C57.9502 15.1444 59.0235 14.5219 59.9585 13.7248ZM54.5008 11.17C54.5008 11.9043 53.8999 12.4995 53.1586 12.4995C52.4172 12.4995 51.8163 11.9043 51.8163 11.17C51.8163 10.4358 52.4172 9.84053 53.1586 9.84053C53.8999 9.84053 54.5008 10.4358 54.5008 11.17Z" fill="#0B0A0A"/>
</g>
</g>
<rect id="Rectangle 390" x="16" y="19" width="3" height="3" fill="#0B0A0A"/>
<g id="Group 6">
<path id="Vector_9" d="M11.6242 15.4057V21.9999H7.27517V15.3525L0 3.38721H4.61745L9.63758 11.6566L14.6577 3.38721H18.9262L11.6242 15.4057Z" fill="#0B0A0A"/>
</g>
</g>
<defs>
<clipPath id="clip0_131_10821">
<rect width="100" height="22" fill="white"/>
</clipPath>
</defs>
</svg>
